<svg width="1024" height="1024" xmlns="http://www.w3.org/2000/svg" xmlns:svg="http://www.w3.org/2000/svg" class="icon">
    <defs>
        <style type="text/css"/>
    </defs>
    <g>
        <title>Layer 1</title>
        <g transform="rotate(45 512.231 511.532)" id="svg_5">
            <path id="svg_1" fill="#BCBCBC" d="m754.76398,768l-113.664,-388.09601c-3.07196,-11.26398 -9.216,-21.504 -17.40796,-29.18399l-160.76801,160.76801l-160.76801,160.76797c8.19199,8.19202 17.91998,14.336 29.18399,17.40802l388.09598,113.664c10.75201,3.07202 21.50403,-0.51202 28.16003,-7.16803c7.16797,-7.16797 10.23999,-17.40796 7.16797,-28.15997z"/>
            <path id="svg_2" fill="#CCCCCC" d="m462.92401,511.48801l284.672,284.67197c7.16797,-7.16797 10.23999,-17.40796 7.16797,-28.15997l-113.664,-388.09601c-3.07196,-11.26398 -9.216,-21.504 -17.40796,-29.18399l-160.76801,160.76801z"/>
            <path id="svg_3" fill="#3C98FF" d="m595.02002,333.31201l-388.09602,-113.66402c-2.56,-1.024 -5.63199,-1.024 -8.192,-1.024c-7.67999,0 -14.84799,3.07201 -20.48,8.192l0.51201,0.51201c-5.12001,5.12 -8.70401,12.28799 -8.192,19.968c-0.51201,2.56 0,5.12 0.51199,7.67999l113.66399,388.09602c3.07202,11.26398 9.216,21.50397 17.40802,29.18396l160.76801,-160.76797l161.27997,-160.76801c-8.19196,-8.19199 -17.91998,-14.336 -29.18396,-17.40799z"/>
            <path id="svg_4" fill="#2D90EA" d="m624.20398,350.72c-8.19196,-8.19199 -17.91998,-14.336 -29.18396,-17.40799l-388.09602,-113.66402c-2.56,-1.024 -5.63199,-1.024 -8.192,-1.024c-7.67999,0 -14.84799,3.07201 -20.48,8.192l284.67201,284.67201l161.27997,-160.76801z"/>
        </g>
    </g>
</svg>
